PathFileType	4	(X/Y/Z)	CPRIT_Patient3_R_KneeIso_Processed.TRC
DataRate	CameraRate	NumFrames	NumMarkers	Units	OrigDataRate	OrigDataStartFrame	OrigNumFrames
150.195058517555	150.195058517555	6	39	m	150.195058517555	675	       771
Frame#	Time	R.Heel			R.Midfoot.Superior			R.Midfoot.Lateral			R.Toe			L.Heel			L.Midfoot.Superior			L.Midfoot.Lateral			L.Toe			R.Shank.Superior			R.Shank.Inferior			R.Shank.Lateral			R.Shank.Posterior			L.Shank.Superior			L.Shank.Inferior			L.Shank.Posterior			L.Shank.Lateral			R.Patella			L.Patella			R.Thigh.Superior			R.Thigh.Lateral			R.Thigh.Inferior			L.Thigh.Superior			L.Thigh.Inferior			L.Thigh.Lateral			L.ASIS			R.ASIS			Sacral			R.Shoulder			L.Shoulder			C7			J.Notch			Sternum			Thoracic			L.Elbow			L.Wrist			R.Elbow			R.Wrist			R.PSIS			L.PSIS			
		X1	Y1	Z1	X2	Y2	Z2	X3	Y3	Z3	X4	Y4	Z4	X5	Y5	Z5	X6	Y6	Z6	X7	Y7	Z7	X8	Y8	Z8	X9	Y9	Z9	X10	Y10	Z10	X11	Y11	Z11	X12	Y12	Z12	X13	Y13	Z13	X14	Y14	Z14	X15	Y15	Z15	X16	Y16	Z16	X17	Y17	Z17	X18	Y18	Z18	X19	Y19	Z19	X20	Y20	Z20	X21	Y21	Z21	X22	Y22	Z22	X23	Y23	Z23	X24	Y24	Z24	X25	Y25	Z25	X26	Y26	Z26	X27	Y27	Z27	X28	Y28	Z28	X29	Y29	Z29	X30	Y30	Z30	X31	Y31	Z31	X32	Y32	Z32	X33	Y33	Z33	X34	Y34	Z34	X35	Y35	Z35	X36	Y36	Z36	X37	Y37	Z37	X38	Y38	Z38	X39	Y39	Z39	

675	4.487497835498	0.698116844408	0.115169952908	0.072149087803	0.871326620341	0.134473263954	0.103746963392	0.765316455516	0.091773069297	0.135808667797	0.976260612727	0.069980963483	0.125408475765	0.653592224111	0.042615287689	-0.090901472354	0.818122327806	0.096310325728	-0.136465407662	0.721060685614	0.032659184551	-0.161299167359	0.932124525210	0.057034239562	-0.163548938958	0.906602798146	0.395188516908	0.102127226645	0.862348054432	0.281800726608	0.103545258032	0.810010454531	0.356350641878	0.151672464682	0.768796033392	0.424977916182	0.084747639190	0.766015594420	0.365126292236	-0.160174713281	0.761725722287	0.237454749321	-0.143958031099	0.628452554052	0.339080252353	-0.146266589416	0.697117881288	0.276365453431	-0.198847625602	0.964422967028	0.515448323800	0.082794088896	0.791034853562	0.466586301964	-0.157130700521	0.856866769425	0.829114215888	0.090630173650	0.812057045812	0.735357611814	0.142850716282	0.923273086700	0.687080670778	0.065593536501	0.841204196961	0.775809435821	-0.177695620786	0.827203914601	0.611068111856	-0.162937255695	0.743955758027	0.704368268925	-0.232532938642	0.830069278096	0.936099224778	-0.168656746258	0.798176689106	0.955919779392	0.069716510439	0.626081053037	0.990188219206	-0.065355951644	0.746839911771	1.451141011709	0.082701515231	0.766984074558	1.463013398489	-0.230647658190	0.698771459711	1.479367792131	-0.076514271711	0.818119537793	1.377470113854	-0.072050259094	0.871042428980	1.198466475927	-0.070283493691	0.613697573771	1.323551870269	-0.084638386290	0.751417779753	1.184711240309	-0.411986231090	0.902566112720	0.987295767132	-0.450248098814	0.662693541834	1.180108876936	0.258354993911	0.735563224459	0.981798189089	0.384029633065	0.624658020645	0.991807811927	-0.027884333467	0.630288675808	0.990043411982	-0.103136057655	
676	4.494155844156	0.702883570712	0.112139370019	0.072819723972	0.876016299130	0.133667339059	0.103809100318	0.770620666601	0.089560648030	0.136223474571	0.981826695384	0.070459653013	0.125018471255	0.653596667266	0.042616283557	-0.090902849409	0.818124445530	0.096320856873	-0.136459863655	0.721061317883	0.032659427744	-0.161299014784	0.932123572086	0.057029993743	-0.163549842185	0.907599446490	0.394973063254	0.102038387265	0.864931341625	0.281010473511	0.103649707395	0.811741320032	0.354829723341	0.151997025411	0.769453481529	0.423015438807	0.085220821320	0.766001232731	0.365123556498	-0.160165780198	0.761709250235	0.237458948606	-0.143952646714	0.628433985736	0.339076005925	-0.146243875300	0.697096688845	0.276367492325	-0.198833859014	0.963837922774	0.515594888201	0.082578440642	0.791008830029	0.466588113696	-0.157113213762	0.856754783894	0.828858065016	0.090619014896	0.811708557838	0.735225454398	0.142912557672	0.922737695416	0.686717812644	0.065569258334	0.841169284694	0.775806980276	-0.177673317611	0.827169573096	0.611064889672	-0.162914702473	0.743931978082	0.704369775124	-0.232518728394	0.830039264902	0.936092821847	-0.168629690786	0.798138763783	0.955917680080	0.069747782650	0.626049938036	0.990188979991	-0.065340848827	0.746807983739	1.451141363607	0.082711244499	0.766970159710	1.463009244626	-0.230626868583	0.698747097525	1.479371528857	-0.076499306204	0.818101592704	1.377461876779	-0.072029772111	0.871002118499	1.198453417181	-0.070271250365	0.613673538843	1.323556593687	-0.084629696584	0.751423429523	1.184711892686	-0.411971891866	0.902567737920	0.987296177236	-0.450246324257	0.662667104372	1.180107796570	0.258363698480	0.735559701727	0.981798405442	0.384030699756	0.624622772498	0.991811198546	-0.027870676364	0.630254630767	0.990046497797	-0.103121827516	
677	4.500813852814	0.707640073109	0.109239064555	0.073446530584	0.880670768258	0.132935285475	0.103879391313	0.775880445105	0.087463341039	0.136615323029	0.987312876954	0.070987291970	0.124664668059	0.653600742972	0.042616817617	-0.090903281003	0.818123344348	0.096329974068	-0.136457477376	0.721062014335	0.032659797211	-0.161298780215	0.932123163139	0.057025108449	-0.163550246160	0.908594153286	0.394788390325	0.101959038137	0.867502147029	0.280276700054	0.103756734025	0.813463026712	0.353365406720	0.152302006267	0.770140361016	0.421096462765	0.085657019547	0.765989328642	0.365122480972	-0.160155952401	0.761693599291	0.237463218181	-0.143946937125	0.628418511199	0.339072991929	-0.146218053015	0.697077425162	0.276370576361	-0.198818005313	0.963262875048	0.515762020063	0.082372196681	0.790986698006	0.466590718895	-0.157094349439	0.856647230687	0.828609531560	0.090619000450	0.811362005082	0.735099058663	0.142978740362	0.922212830100	0.686369204370	0.065560603855	0.841137661835	0.775805854629	-0.177649159097	0.827139453919	0.611062899632	-0.162890586533	0.743908316788	0.704371115983	-0.232501387842	0.830012027938	0.936087636305	-0.168601254546	0.798103795145	0.955916867597	0.069781008067	0.626021892318	0.990189829267	-0.065322990891	0.746777305505	1.451142463339	0.082719213944	0.766955313263	1.463005206599	-0.230609000181	0.698722562669	1.479376172374	-0.076487079630	0.818083381955	1.377454529748	-0.072011880872	0.870962483842	1.198441920888	-0.070261121984	0.613649236618	1.323561835729	-0.084621612278	0.751428943993	1.184712344445	-0.411959455880	0.902569596201	0.987296509186	-0.450245064455	0.662643206533	1.180107216797	0.258370976660	0.735556713068	0.981798955654	0.384031788733	0.624590820674	0.991815019677	-0.027854356691	0.630223435321	0.990049235093	-0.103104707896	
678	4.507471861472	0.712383360883	0.106469501170	0.074026087620	0.885287222660	0.132275186052	0.103958500933	0.781091377484	0.085480898651	0.136982528802	0.992716813494	0.071561138230	0.124352149022	0.653604380586	0.042617017379	-0.090902839902	0.818119314659	0.096337758050	-0.136457968440	0.721062761645	0.032660288213	-0.161298465837	0.932123346837	0.057019607252	-0.163550096969	0.909587266133	0.394633742922	0.101890338081	0.870059710157	0.279598158838	0.103866491751	0.815173522145	0.351957562927	0.152585256688	0.770856437968	0.419220373765	0.086051962261	0.765979935348	0.365123006362	-0.160144795198	0.761678814714	0.237467520158	-0.143940937705	0.628406169196	0.339071256255	-0.146189290196	0.697060133684	0.276374698905	-0.198800181889	0.962698409949	0.515950024068	0.082175773064	0.790968514952	0.466594072530	-0.157074150939	0.856544484429	0.828370597060	0.090631639922	0.811017908052	0.734978639231	0.143048136270	0.921699286021	0.686035818742	0.065566979055	0.841109476972	0.775806042198	-0.177623014650	0.827113603687	0.611062125758	-0.162864883484	0.743884951744	0.704372312288	-0.232481049629	0.829987804417	0.936083610337	-0.168571319662	0.798071677424	0.955917202140	0.069816251077	0.625997020001	0.990190641689	-0.065302451725	0.746747809799	1.451144285381	0.082725517834	0.766939296890	1.463001192252	-0.230594065153	0.698697764702	1.479381580445	-0.076477528157	0.818064871614	1.377447998893	-0.071996504608	0.870923535946	1.198431941677	-0.070252911595	0.613624593394	1.323567399935	-0.084613972740	0.751434117909	1.184712380435	-0.411948782042	0.902571691735	0.987296770422	-0.450244281490	0.662621781220	1.180107116618	0.258376965436	0.735554236688	0.981799817873	0.384032907723	0.624562240848	0.991819131619	-0.027835457250	0.630195244652	0.990051543362	-0.103084783940	
679	4.514129870130	0.717110789483	0.103830379453	0.074555972363	0.889863238470	0.131685052571	0.104046474925	0.786250060006	0.083612562614	0.137323761783	0.998037016441	0.072178844857	0.124084323348	0.653607525684	0.042617005942	-0.090901609007	0.818112736917	0.096344315393	-0.136460982065	0.721063546519	0.032660894053	-0.161298074694	0.932124164619	0.057013525996	-0.163549343982	0.910579096796	0.394508263926	0.101833099068	0.872603478890	0.278973483114	0.103978825341	0.816871459617	0.350605645243	0.152845294975	0.771601156809	0.417386341500	0.086402916423	0.765973087908	0.365125043234	-0.160131981800	0.761664947305	0.237471816637	-0.143934677913	0.628396964441	0.339070826854	-0.146157799384	0.697044836899	0.276379837825	-0.198780539692	0.962144848036	0.516158919638	0.081989363870	0.790954299467	0.466598109446	-0.157052692299	0.856446990170	0.828143020240	0.090657927994	0.810676936015	0.734864445490	0.143119507869	0.921197832211	0.685718445599	0.065587410284	0.841084882125	0.775807494537	-0.177594759554	0.827092045835	0.611062521427	-0.162837581288	0.743862093515	0.704373371015	-0.232457895747	0.829966850721	0.936080672787	-0.168539787399	0.798042331438	0.955918524592	0.069853535834	0.625975438267	0.990191302989	-0.065279351081	0.746719437453	1.451146787408	0.082730271480	0.766921860725	1.462997103659	-0.230582047239	0.698672613053	1.479387582801	-0.076470547098	0.818046041554	1.377442202956	-0.071983546473	0.870885302388	1.198423409744	-0.070246401180	0.613599561305	1.323573058401	-0.084606601722	0.751438718242	1.184711770477	-0.411939697601	0.902574020269	0.987296967673	-0.450243933664	0.662602743536	1.180107468332	0.258381816629	0.735552247925	0.981800962051	0.384034064238	0.624537113608	0.991823394281	-0.027814105095	0.630170235333	0.990053344801	-0.103062176008	
680	4.520787878788	0.721820115031	0.101320581253	0.075034858551	0.894396842272	0.131162884979	0.104142703995	0.791354214461	0.081857042720	0.137638095480	1.003272924235	0.072838554985	0.123862740090	0.653610140901	0.042616896170	-0.090899677875	0.818104056827	0.096349774363	-0.136466104224	0.721064355948	0.032661606179	-0.161297610567	0.932125648001	0.057006910589	-0.163547943415	0.911569895211	0.394411020504	0.101787742081	0.875133107925	0.278401210438	0.104093263292	0.818556238996	0.349308715297	0.153081362014	0.772373625984	0.415593355316	0.086708809430	0.765968802584	0.365128474386	-0.160117284961	0.761652055445	0.237476070363	-0.143928181036	0.628390870203	0.339071711571	-0.146123835662	0.697031541490	0.276385955856	-0.198759261937	0.961602225340	0.516388423984	0.081812934870	0.790944034627	0.466602746548	-0.157030073689	0.856355228108	0.827928291843	0.090698310799	0.810339884510	0.734756759059	0.143191544950	0.920709204840	0.685417666217	0.065620586512	0.841064035069	0.775810133087	-0.177564282724	0.827074785919	0.611064011420	-0.162808681825	0.743839978907	0.704374284178	-0.232432149308	0.829949437514	0.936078743418	-0.168506579751	0.798015703594	0.955920653887	0.069892845393	0.625957274189	0.990191716676	-0.065253847591	0.746692133948	1.451149912000	0.082733607133	0.766902749584	1.462992838815	-0.230572901324	0.698647018294	1.479393982342	-0.076465992120	0.818026886796	1.377437057591	-0.071972893950	0.870847830077	1.198416234249	-0.070241358519	0.613574122419	1.323578554523	-0.084599311787	0.751442492025	1.184710276923	-0.411932003864	0.902576570327	0.987297105919	-0.450243978641	0.662585991917	1.180108235864	0.258385694989	0.735550720501	0.981802349399	0.384035268631	0.624515522044	0.991827678190	-0.027790464079	0.630148602210	0.990054570627	-0.103037032523	
